<?xml version="1.0" encoding="UTF-8"?>
<svg width="100px" height="100px" version="1.1" viewBox="0 0 700 700" xmlns="http://www.w3.org/2000/svg" xmlns:xlink="http://www.w3.org/1999/xlink">
 <g>
  <path d="m425.6 344.91c0 1.5273-0.85547 1.9141-1.9531 0.81641l-63.777-63.773c-1.0781-1.0781-1.0977-2.8086 0-3.9062l63.777-63.773c1.0781-1.0781 1.9531-0.72656 1.9531 0.81641v28.508c0 3.0938 2.4844 5.6016 5.5977 5.6016 3.0938 0 5.6016-2.5508 5.6016-5.5742v-44.852c0-3.0781-2.5508-5.5742-5.5742-5.5742h-44.852c-3.0781 0-5.5742 2.4883-5.5742 5.6016 0 3.0938 2.5352 5.5977 5.6016 5.5977h28.508c1.5273 0 1.9141 0.85547 0.81641 1.9531l-63.773 63.777c-1.0781 1.0781-2.8086 1.0977-3.9062 0l-63.773-63.777c-1.0781-1.0781-0.72656-1.9531 0.81641-1.9531h28.508c3.0938 0 5.6016-2.4844 5.6016-5.5977 0-3.0938-2.5508-5.6016-5.5742-5.6016h-44.852c-3.0781 0-5.5742 2.5508-5.5742 5.5742v44.852c0 3.0781 2.4883 5.5742 5.6016 5.5742 3.0938 0 5.5977-2.5352 5.5977-5.6016v-28.508c0-1.5273 0.85547-1.9141 1.9531-0.81641l63.777 63.773c1.0781 1.0781 1.0977 2.8086 0 3.9062l-63.777 63.773c-1.0781 1.0781-1.9531 0.72656-1.9531-0.81641v-28.508c0-3.0938-2.4844-5.6016-5.5977-5.6016-3.0938 0-5.6016 2.5508-5.6016 5.5742v44.852c0 3.0781 2.5508 5.5742 5.5742 5.5742h44.852c3.0781 0 5.5742-2.4883 5.5742-5.6016 0-3.0938-2.5352-5.5977-5.6016-5.5977h-28.508c-1.5273 0-1.9141-0.85547-0.81641-1.9531l63.773-63.777c1.0781-1.0781 2.8086-1.0977 3.9062 0l63.773 63.777c1.0781 1.0781 0.72656 1.9531-0.81641 1.9531h-28.508c-3.0938 0-5.6016 2.4844-5.6016 5.5977 0 3.0938 2.5508 5.6016 5.5742 5.6016h44.852c3.0781 0 5.5742-2.5508 5.5742-5.5742v-44.852c0-3.0781-2.4883-5.5742-5.6016-5.5742-3.0938 0-5.5977 2.5352-5.5977 5.6016z" fill-rule="evenodd"/>
 </g>
</svg>
